<svg width="272" height="166" viewBox="0 0 272 166" fill="none" xmlns="http://www.w3.org/2000/svg">
<path d="M6.67188 131V62.75H12.6719L41.5 117.266C42.0312 118.234 42.5 119.219 42.9062 120.219C43.3125 121.219 43.6562 122.203 43.9375 123.172H44.1719C44.1094 122.109 44.0625 121.016 44.0312 119.891C44.0312 118.734 44.0312 117.625 44.0312 116.562V62.75H48.9531V131H43.0938L14.0781 76.1562C13.5781 75.2188 13.125 74.2344 12.7188 73.2031C12.3125 72.1719 11.9688 71.1719 11.6875 70.2031H11.4531C11.4844 71.2656 11.5 72.4062 11.5 73.625C11.5312 74.8438 11.5469 76 11.5469 77.0938V131H6.67188ZM58 118.812C58 114.625 59.6094 111.281 62.8281 108.781C66.0781 106.281 70.4062 105.031 75.8125 105.031H86.1719V100.625C86.1719 97.6562 85.3906 95.4219 83.8281 93.9219C82.2656 92.4219 79.7344 91.6719 76.2344 91.6719C72.7969 91.6719 70.1562 92.3125 68.3125 93.5938C66.4688 94.875 65.5469 96.7656 65.5469 99.2656V100.344H60.3438V98.6562C60.3438 95.375 61.7656 92.6094 64.6094 90.3594C67.4531 88.0781 71.3438 86.9375 76.2812 86.9375C81.0312 86.9375 84.7344 87.9844 87.3906 90.0781C90.0469 92.1406 91.375 95.6562 91.375 100.625V119.75C91.375 121.781 91.5 123.703 91.75 125.516C92.0312 127.328 92.4688 128.906 93.0625 130.25V131H88.2344C87.7656 130.188 87.3594 129.156 87.0156 127.906C86.7031 126.656 86.4688 125.391 86.3125 124.109C85.3125 126.047 83.6094 127.781 81.2031 129.312C78.7969 130.844 75.7188 131.609 71.9688 131.609C67.6875 131.609 64.2812 130.516 61.75 128.328C59.25 126.141 58 122.969 58 118.812ZM63.2031 118.625C63.2031 121.406 64.0312 123.484 65.6875 124.859C67.375 126.234 69.7656 126.922 72.8594 126.922C76.2031 126.922 79.25 125.797 82 123.547C84.7812 121.297 86.1719 118.75 86.1719 115.906V109.391H76.7031C72.1094 109.391 68.7031 110.219 66.4844 111.875C64.2969 113.531 63.2031 115.781 63.2031 118.625ZM96.2969 87.875H101.781L113.406 119.469C113.844 120.656 114.25 121.781 114.625 122.844C115 123.906 115.266 124.703 115.422 125.234H115.656C115.844 124.703 116.094 123.906 116.406 122.844C116.75 121.781 117.141 120.656 117.578 119.469L129.391 87.875H134.734L118.188 131H112.938L96.2969 87.875ZM134.266 131L155.078 62.75H162.297L183.062 131H177.625L160.422 72.9688C160.047 71.7188 159.719 70.625 159.438 69.6875C159.188 68.7188 158.891 67.6562 158.547 66.5H158.406C158.062 67.6562 157.75 68.7188 157.469 69.6875C157.188 70.625 156.859 71.7188 156.484 72.9688L139.516 131H134.266ZM142.703 111.5L144.016 107.047H173.172L174.578 111.5H142.703ZM188.219 151.766V87.875H193.141V94.0625H193.234C194.391 92.0625 196.234 90.375 198.766 89C201.297 87.625 204.109 86.9375 207.203 86.9375C212.641 86.9375 216.859 88.875 219.859 92.75C222.859 96.5938 224.359 101.812 224.359 108.406V109.906C224.359 116.625 222.859 121.984 219.859 125.984C216.859 129.953 212.641 131.938 207.203 131.938C204.078 131.938 201.359 131.344 199.047 130.156C196.766 128.938 194.891 127.344 193.422 125.375V151.766H188.219ZM193.422 119.047C194.391 121.203 195.938 123.109 198.062 124.766C200.188 126.422 202.781 127.25 205.844 127.25C210.375 127.25 213.703 125.609 215.828 122.328C217.953 119.047 219.016 114.891 219.016 109.859V108.406C219.016 103.406 217.953 99.375 215.828 96.3125C213.703 93.2188 210.375 91.6719 205.844 91.6719C202.812 91.6719 200.219 92.5 198.062 94.1562C195.938 95.7812 194.391 97.6562 193.422 99.7812V119.047ZM232.656 151.766V87.875H237.578V94.0625H237.672C238.828 92.0625 240.672 90.375 243.203 89C245.734 87.625 248.547 86.9375 251.641 86.9375C257.078 86.9375 261.297 88.875 264.297 92.75C267.297 96.5938 268.797 101.812 268.797 108.406V109.906C268.797 116.625 267.297 121.984 264.297 125.984C261.297 129.953 257.078 131.938 251.641 131.938C248.516 131.938 245.797 131.344 243.484 130.156C241.203 128.938 239.328 127.344 237.859 125.375V151.766H232.656ZM237.859 119.047C238.828 121.203 240.375 123.109 242.5 124.766C244.625 126.422 247.219 127.25 250.281 127.25C254.812 127.25 258.141 125.609 260.266 122.328C262.391 119.047 263.453 114.891 263.453 109.859V108.406C263.453 103.406 262.391 99.375 260.266 96.3125C258.141 93.2188 254.812 91.6719 250.281 91.6719C247.25 91.6719 244.656 92.5 242.5 94.1562C240.375 95.7812 238.828 97.6562 237.859 99.7812V119.047Z" fill="#42DA05"/>
<path d="M63 66.5C72.6 47.3 164.667 14.8333 209.5 1L185 35.5C185 35.5 166.5 54 209.5 66.5M6.99999 141C0.99999 165 31.5 165 31.5 165H237C237 165 265 165 270 141" stroke="#42DA05"/>
</svg>
